999
dxfrw 0.6.3
  0
SECTION
  2
HEADER
  9
$ACADVER
  1
AC1021
  9
$DWGCODEPAGE
  3
ANSI_1252
  9
$INSBASE
 10
0
 20
0
 30
0
  9
$EXTMIN
 10
89.5
 20
276.29503
 30
0
  9
$EXTMAX
 10
934.166883
 20
772.065176
 30
0
  9
$LIMMIN
 10
0
 20
0
  9
$LIMMAX
 10
420
 20
297
  9
$ORTHOMODE
 70
    0
  9
$REGENMODE
 70
    1
  9
$FILLMODE
 70
    1
  9
$QTEXTMODE
 70
    0
  9
$MIRRTEXT
 70
    0
  9
$LTSCALE
 40
1
  9
$ATTMODE
 70
    0
  9
$TEXTSIZE
 40
2.5
  9
$TRACEWID
 40
15.68
  9
$TEXTSTYLE
  7
STANDARD
  9
$CLAYER
  8
0
  9
$CELTYPE
  6
BYLAYER
  9
$CECOLOR
 62
  256
  9
$CELTSCALE
 40
1
  9
$DISPSILH
 70
    0
  9
$DIMSCALE
 40
2.5
  9
$DIMASZ
 40
2.5
  9
$DIMEXO
 40
0.625
  9
$DIMDLI
 40
3.75
  9
$DIMRND
 40
0
  9
$DIMDLE
 40
0
  9
$DIMEXE
 40
1.25
  9
$DIMTP
 40
0
  9
$DIMTM
 40
0
  9
$DIMTXT
 40
2.5
  9
$DIMCEN
 40
2.5
  9
$DIMTSZ
 40
0
  9
$DIMTOL
 70
    0
  9
$DIMLIM
 70
    0
  9
$DIMTIH
 70
    0
  9
$DIMTOH
 70
    0
  9
$DIMSE1
 70
    0
  9
$DIMSE2
 70
    0
  9
$DIMTAD
 70
    1
  9
$DIMZIN
 70
    8
  9
$DIMBLK
  1

  9
$DIMASO
 70
    1
  9
$DIMSHO
 70
    1
  9
$DIMPOST
  1

  9
$DIMAPOST
  1

  9
$DIMALT
 70
    0
  9
$DIMALTD
 70
    3
  9
$DIMALTF
 40
0.03937
  9
$DIMLFAC
 40
1
  9
$DIMTOFL
 70
    1
  9
$DIMTVP
 40
0
  9
$DIMTIX
 70
    0
  9
$DIMSOXD
 70
    0
  9
$DIMSAH
 70
    0
  9
$DIMBLK1
  1

  9
$DIMBLK2
  1

  9
$DIMSTYLE
  2
Standard
  9
$DIMCLRD
 70
    0
  9
$DIMCLRE
 70
    0
  9
$DIMCLRT
 70
    0
  9
$DIMTFAC
 40
1
  9
$DIMGAP
 40
0.625
  9
$DIMJUST
 70
    0
  9
$DIMSD1
 70
    0
  9
$DIMSD2
 70
    0
  9
$DIMTOLJ
 70
    0
  9
$DIMTZIN
 70
    8
  9
$DIMALTZ
 70
    0
  9
$DIMALTTZ
 70
    0
  9
$DIMUPT
 70
    0
  9
$DIMDEC
 70
    2
  9
$DIMTDEC
 70
    2
  9
$DIMALTU
 70
    2
  9
$DIMALTTD
 70
    3
  9
$DIMTXSTY
  7
STANDARD
  9
$DIMAUNIT
 70
    0
  9
$DIMADEC
 70
    0
  9
$DIMALTRND
 40
0
  9
$DIMAZIN
 70
    0
  9
$DIMDSEP
 70
   44
  9
$DIMATFIT
 70
    3
  9
$DIMFRAC
 70
    0
  9
$DIMLDRBLK
  1
STANDARD
  9
$DIMLUNIT
 70
    2
  9
$DIMLWD
 70
   -2
  9
$DIMLWE
 70
   -2
  9
$DIMTMOVE
 70
    0
  9
$DIMFXL
 40
1
  9
$DIMFXLON
 70
    0
  9
$DIMJOGANG
 40
0.7854
  9
$DIMTFILL
 70
    0
  9
$DIMTFILLCLR
 70
    0
  9
$DIMARCSYM
 70
    0
  9
$DIMLTYPE
  6

  9
$DIMLTEX1
  6

  9
$DIMLTEX2
  6

  9
$LUNITS
 70
    2
  9
$LUPREC
 70
    4
  9
$SKETCHINC
 40
1
  9
$FILLETRAD
 40
0
  9
$AUNITS
 70
    0
  9
$AUPREC
 70
    2
  9
$MENU
  1
.
  9
$ELEVATION
 40
0
  9
$PELEVATION
 40
0
  9
$THICKNESS
 40
0
  9
$LIMCHECK
 70
    0
  9
$CHAMFERA
 40
0
  9
$CHAMFERB
 40
0
  9
$CHAMFERC
 40
0
  9
$CHAMFERD
 40
0
  9
$SKPOLY
 70
    0
  9
$USRTIMER
 70
    1
  9
$ANGBASE
 50
0
  9
$ANGDIR
 70
    0
  9
$PDMODE
 70
   34
  9
$PDSIZE
 40
0
  9
$PLINEWID
 40
0
  9
$SPLFRAME
 70
    0
  9
$SPLINETYPE
 70
    2
  9
$SPLINESEGS
 70
    8
  9
$HANDSEED
  5
20000
  9
$SURFTAB1
 70
    6
  9
$SURFTAB2
 70
    6
  9
$SURFTYPE
 70
    6
  9
$SURFU
 70
    6
  9
$SURFV
 70
    6
  9
$UCSBASE
  2

  9
$UCSNAME
  2

  9
$UCSORG
 10
0
 20
0
 30
0
  9
$UCSXDIR
 10
1
 20
0
 30
0
  9
$UCSYDIR
 10
0
 20
1
 30
0
  9
$UCSORTHOREF
  2

  9
$UCSORTHOVIEW
 70
    0
  9
$UCSORGTOP
 10
0
 20
0
 30
0
  9
$UCSORGBOTTOM
 10
0
 20
0
 30
0
  9
$UCSORGLEFT
 10
0
 20
0
 30
0
  9
$UCSORGRIGHT
 10
0
 20
0
 30
0
  9
$UCSORGFRONT
 10
0
 20
0
 30
0
  9
$UCSORGBACK
 10
0
 20
0
 30
0
  9
$PUCSBASE
  2

  9
$PUCSNAME
  2

  9
$PUCSORG
 10
0
 20
0
 30
0
  9
$PUCSXDIR
 10
1
 20
0
 30
0
  9
$PUCSYDIR
 10
0
 20
1
 30
0
  9
$PUCSORTHOREF
  2

  9
$PUCSORTHOVIEW
 70
    0
  9
$PUCSORGTOP
 10
0
 20
0
 30
0
  9
$PUCSORGBOTTOM
 10
0
 20
0
 30
0
  9
$PUCSORGLEFT
 10
0
 20
0
 30
0
  9
$PUCSORGRIGHT
 10
0
 20
0
 30
0
  9
$PUCSORGFRONT
 10
0
 20
0
 30
0
  9
$PUCSORGBACK
 10
0
 20
0
 30
0
  9
$USERI1
 70
    0
  9
$USERI2
 70
    0
  9
$USERI3
 70
    0
  9
$USERI4
 70
    0
  9
$USERI5
 70
    0
  9
$USERR1
 40
0
  9
$USERR2
 40
0
  9
$USERR3
 40
0
  9
$USERR4
 40
0
  9
$USERR5
 40
0
  9
$WORLDVIEW
 70
    1
  9
$SHADEDGE
 70
    3
  9
$SHADEDIF
 70
   70
  9
$TILEMODE
 70
    1
  9
$MAXACTVP
 70
   64
  9
$PINSBASE
 10
0
 20
0
 30
0
  9
$PLIMCHECK
 70
    0
  9
$PEXTMIN
 10
0
 20
0
 30
0
  9
$PEXTMAX
 10
0
 20
0
 30
0
  9
$GRIDMODE
 70
    1
  9
$SNAPSTYLE
 70
    0
  9
$PLIMMIN
 10
0
 20
0
  9
$PLIMMAX
 10
2.1e-010
 20
2.97e-010
  9
$UNITMODE
 70
    0
  9
$VISRETAIN
 70
    1
  9
$PLINEGEN
 70
    0
  9
$PSLTSCALE
 70
    1
  9
$TREEDEPTH
 70
 3020
  9
$CMLSTYLE
  2
Standard
  9
$CMLJUST
 70
    0
  9
$CMLSCALE
 40
20
  9
$PROXYGRAPHICS
 70
    1
  9
$MEASUREMENT
 70
    1
  9
$CELWEIGHT
370
   -1
  9
$ENDCAPS
280
    0
  9
$JOINSTYLE
280
    0
  9
$LWDISPLAY
290
    0
  9
$INSUNITS
 70
    0
  9
$HYPERLINKBASE
  1

  9
$STYLESHEET
  1

  9
$XEDIT
290
    1
  9
$CEPSNTYPE
380
    0
  9
$PSTYLEMODE
290
    1
  9
$EXTNAMES
290
    1
  9
$PSVPSCALE
 40
1
  9
$OLESTARTUP
290
    0
  9
$SORTENTS
280
  127
  9
$INDEXCTL
280
    0
  9
$HIDETEXT
280
    1
  9
$XCLIPFRAME
290
    0
  9
$HALOGAP
280
    0
  9
$OBSCOLOR
 70
  257
  9
$OBSLTYPE
280
    0
  9
$INTERSECTIONDISPLAY
280
    0
  9
$INTERSECTIONCOLOR
 70
  257
  9
$DIMASSOC
280
    1
  9
$PROJECTNAME
  1

  9
$CAMERADISPLAY
290
    0
  9
$LENSLENGTH
 40
50
  9
$CAMERAHEIGHT
 40
0
  9
$STEPSPERSEC
 40
2
  9
$STEPSIZE
 40
50
  9
$3DDWFPREC
 40
2
  9
$PSOLWIDTH
 40
5
  9
$PSOLHEIGHT
 40
80
  9
$LOFTANG1
 40
1.570796326794897
  9
$LOFTANG2
 40
1.570796326794897
  9
$LOFTMAG1
 40
0
  9
$LOFTMAG2
 40
0
  9
$LOFTPARAM
 70
    7
  9
$LOFTNORMALS
280
    1
  9
$LATITUDE
 40
1
  9
$LONGITUDE
 40
1
  9
$NORTHDIRECTION
 40
0
  9
$TIMEZONE
 70
-8000
  9
$LIGHTGLYPHDISPLAY
280
    1
  9
$TILEMODELIGHTSYNCH
280
    1
  9
$SOLIDHIST
280
    1
  9
$SHOWHIST
280
    1
  9
$DWFFRAME
280
    2
  9
$DGNFRAME
280
    0
  9
$REALWORLDSCALE
290
    1
  9
$INTERFERECOLOR
 62
    1
  9
$CSHADOW
280
    0
  9
$SHADOWPLANELOCATION
 40
0
  0
ENDSEC
  0
SECTION
  2
CLASSES
  0
ENDSEC
  0
SECTION
  2
TABLES
  0
TABLE
  2
VPORT
  5
8
330
0
100
AcDbSymbolTable
 70
    1
  0
VPORT
  5
31
330
2
100
AcDbSymbolTableRecord
100
AcDbViewportTableRecord
  2
*ACTIVE
 70
    0
 10
0
 20
0
 11
1
 21
1
 12
381.186384675535
 22
265.6468145911475
 13
0
 23
0
 14
10
 24
10
 15
10
 25
10
 16
0
 26
0
 36
1
 17
0
 27
0
 37
0
 40
20.10353815456732
 41
2.277435265104809
 42
50
 43
0
 44
0
 50
0
 51
0
 71
    0
 72
  100
 73
    1
 74
    3
 75
    0
 76
    1
 77
    0
 78
    0
281
    0
 65
    1
110
0
120
0
130
0
111
1
121
0
131
0
112
0
122
1
132
0
 79
    0
146
0
348
10020
 60
    7
 61
    5
292
1
282
    1
141
0
142
0
 63
  250
421
3358443
  0
ENDTAB
  0
TABLE
  2
LTYPE
  5
5
330
0
100
AcDbSymbolTable
 70
    4
  0
LTYPE
  5
14
330
5
100
AcDbSymbolTableRecord
100
AcDbLinetypeTableRecord
  2
ByBlock
 70
    0
  3

 72
   65
 73
    0
 40
0
  0
LTYPE
  5
15
330
5
100
AcDbSymbolTableRecord
100
AcDbLinetypeTableRecord
  2
ByLayer
 70
    0
  3

 72
   65
 73
    0
 40
0
  0
LTYPE
  5
16
330
5
100
AcDbSymbolTableRecord
100
AcDbLinetypeTableRecord
  2
Continuous
 70
    0
  3
Solid line
 72
   65
 73
    0
 40
0
  0
LTYPE
  5
32
330
5
100
AcDbSymbolTableRecord
100
AcDbLinetypeTableRecord
  2
DOT
 70
    0
  3
Dot . . . . . . . . . . . . . . . . . . . . . .
 72
   65
 73
    2
 40
6.35
 49
0
 74
    0
 49
-6.35
 74
    0
  0
LTYPE
  5
33
330
5
100
AcDbSymbolTableRecord
100
AcDbLinetypeTableRecord
  2
DOTTINY
 70
    0
  3
Dot (.15x) .....................................
 72
   65
 73
    2
 40
0.9525
 49
0
 74
    0
 49
-0.9525
 74
    0
  0
LTYPE
  5
34
330
5
100
AcDbSymbolTableRecord
100
AcDbLinetypeTableRecord
  2
DOT2
 70
    0
  3
Dot (.5x) .....................................
 72
   65
 73
    2
 40
3.175
 49
0
 74
    0
 49
-3.175
 74
    0
  0
LTYPE
  5
35
330
5
100
AcDbSymbolTableRecord
100
AcDbLinetypeTableRecord
  2
DOTX2
 70
    0
  3
Dot (2x) .  .  .  .  .  .  .  .  .  .  .  .  .
 72
   65
 73
    2
 40
12.7
 49
0
 74
    0
 49
-12.7
 74
    0
  0
LTYPE
  5
36
330
5
100
AcDbSymbolTableRecord
100
AcDbLinetypeTableRecord
  2
DASHED
 70
    0
  3
Dashed _ _ _ _ _ _ _ _ _ _ _ _ _ _ _ _ _
 72
   65
 73
    2
 40
19.05
 49
12.7
 74
    0
 49
-6.35
 74
    0
  0
LTYPE
  5
37
330
5
100
AcDbSymbolTableRecord
100
AcDbLinetypeTableRecord
  2
DASHEDTINY
 70
    0
  3
Dashed (.15x) _ _ _ _ _ _ _ _ _ _ _ _ _ _ _ _ _
 72
   65
 73
    2
 40
2.8575
 49
1.905
 74
    0
 49
-0.9525
 74
    0
  0
LTYPE
  5
38
330
5
100
AcDbSymbolTableRecord
100
AcDbLinetypeTableRecord
  2
DASHED2
 70
    0
  3
Dashed (.5x) _ _ _ _ _ _ _ _ _ _ _ _ _ _ _ _ _
 72
   65
 73
    2
 40
9.524999999999999
 49
6.35
 74
    0
 49
-3.175
 74
    0
  0
LTYPE
  5
39
330
5
100
AcDbSymbolTableRecord
100
AcDbLinetypeTableRecord
  2
DASHEDX2
 70
    0
  3
Dashed (2x) ____  ____  ____  ____  ____  ___
 72
   65
 73
    2
 40
38.09999999999999
 49
25.4
 74
    0
 49
-12.7
 74
    0
  0
LTYPE
  5
3A
330
5
100
AcDbSymbolTableRecord
100
AcDbLinetypeTableRecord
  2
DASHDOT
 70
    0
  3
Dash dot __ . __ . __ . __ . __ . __ . __ . __
 72
   65
 73
    4
 40
25.4
 49
12.7
 74
    0
 49
-6.35
 74
    0
 49
0
 74
    0
 49
-6.35
 74
    0
  0
LTYPE
  5
3B
330
5
100
AcDbSymbolTableRecord
100
AcDbLinetypeTableRecord
  2
DASHDOTTINY
 70
    0
  3
Dash dot (.15x) _._._._._._._._._._._._._._._.
 72
   65
 73
    4
 40
3.81
 49
1.905
 74
    0
 49
-0.9525
 74
    0
 49
0
 74
    0
 49
-0.9525
 74
    0
  0
LTYPE
  5
3C
330
5
100
AcDbSymbolTableRecord
100
AcDbLinetypeTableRecord
  2
DASHDOT2
 70
    0
  3
Dash dot (.5x) _._._._._._._._._._._._._._._.
 72
   65
 73
    4
 40
12.7
 49
6.35
 74
    0
 49
-3.175
 74
    0
 49
0
 74
    0
 49
-3.175
 74
    0
  0
LTYPE
  5
3D
330
5
100
AcDbSymbolTableRecord
100
AcDbLinetypeTableRecord
  2
DASHDOTX2
 70
    0
  3
Dash dot (2x) ____  .  ____  .  ____  .  ___
 72
   65
 73
    4
 40
50.8
 49
25.4
 74
    0
 49
-12.7
 74
    0
 49
0
 74
    0
 49
-12.7
 74
    0
  0
LTYPE
  5
3E
330
5
100
AcDbSymbolTableRecord
100
AcDbLinetypeTableRecord
  2
DIVIDE
 70
    0
  3
Divide ____ . . ____ . . ____ . . ____ . . ____
 72
   65
 73
    6
 40
31.75
 49
12.7
 74
    0
 49
-6.35
 74
    0
 49
0
 74
    0
 49
-6.35
 74
    0
 49
0
 74
    0
 49
-6.35
 74
    0
  0
LTYPE
  5
3F
330
5
100
AcDbSymbolTableRecord
100
AcDbLinetypeTableRecord
  2
DIVIDETINY
 70
    0
  3
Divide (.15x) __..__..__..__..__..__..__..__.._
 72
   65
 73
    6
 40
4.7625
 49
1.905
 74
    0
 49
-0.9525
 74
    0
 49
0
 74
    0
 49
-0.9525
 74
    0
 49
0
 74
    0
 49
-0.9525
 74
    0
  0
LTYPE
  5
40
330
5
100
AcDbSymbolTableRecord
100
AcDbLinetypeTableRecord
  2
DIVIDE2
 70
    0
  3
Divide (.5x) __..__..__..__..__..__..__..__.._
 72
   65
 73
    6
 40
15.875
 49
6.35
 74
    0
 49
-3.175
 74
    0
 49
0
 74
    0
 49
-3.175
 74
    0
 49
0
 74
    0
 49
-3.175
 74
    0
  0
LTYPE
  5
41
330
5
100
AcDbSymbolTableRecord
100
AcDbLinetypeTableRecord
  2
DIVIDEX2
 70
    0
  3
Divide (2x) ________  .  .  ________  .  .  _
 72
   65
 73
    6
 40
63.5
 49
25.4
 74
    0
 49
-12.7
 74
    0
 49
0
 74
    0
 49
-12.7
 74
    0
 49
0
 74
    0
 49
-12.7
 74
    0
  0
LTYPE
  5
42
330
5
100
AcDbSymbolTableRecord
100
AcDbLinetypeTableRecord
  2
BORDER
 70
    0
  3
Border __ __ . __ __ . __ __ . __ __ . __ __ .
 72
   65
 73
    6
 40
44.45
 49
12.7
 74
    0
 49
-6.35
 74
    0
 49
12.7
 74
    0
 49
-6.35
 74
    0
 49
0
 74
    0
 49
-6.35
 74
    0
  0
LTYPE
  5
43
330
5
100
AcDbSymbolTableRecord
100
AcDbLinetypeTableRecord
  2
BORDERTINY
 70
    0
  3
Border (.15x) __.__.__.__.__.__.__.__.__.__.__.
 72
   65
 73
    6
 40
6.6675
 49
1.905
 74
    0
 49
-0.9525
 74
    0
 49
1.905
 74
    0
 49
-0.9525
 74
    0
 49
0
 74
    0
 49
-0.9525
 74
    0
  0
LTYPE
  5
44
330
5
100
AcDbSymbolTableRecord
100
AcDbLinetypeTableRecord
  2
BORDER2
 70
    0
  3
Border (.5x) __.__.__.__.__.__.__.__.__.__.__.
 72
   65
 73
    6
 40
22.225
 49
6.35
 74
    0
 49
-3.175
 74
    0
 49
6.35
 74
    0
 49
-3.175
 74
    0
 49
0
 74
    0
 49
-3.175
 74
    0
  0
LTYPE
  5
45
330
5
100
AcDbSymbolTableRecord
100
AcDbLinetypeTableRecord
  2
BORDERX2
 70
    0
  3
Border (2x) ____  ____  .  ____  ____  .  ___
 72
   65
 73
    6
 40
88.89999999999999
 49
25.4
 74
    0
 49
-12.7
 74
    0
 49
25.4
 74
    0
 49
-12.7
 74
    0
 49
0
 74
    0
 49
-12.7
 74
    0
  0
LTYPE
  5
46
330
5
100
AcDbSymbolTableRecord
100
AcDbLinetypeTableRecord
  2
CENTER
 70
    0
  3
Center ____ _ ____ _ ____ _ ____ _ ____ _ ____
 72
   65
 73
    4
 40
50.8
 49
31.75
 74
    0
 49
-6.35
 74
    0
 49
6.35
 74
    0
 49
-6.35
 74
    0
  0
LTYPE
  5
47
330
5
100
AcDbSymbolTableRecord
100
AcDbLinetypeTableRecord
  2
CENTERTINY
 70
    0
  3
Center (.15x) ___ _ ___ _ ___ _ ___ _ ___ _ ___
 72
   65
 73
    4
 40
7.619999999999999
 49
4.7625
 74
    0
 49
-0.9525
 74
    0
 49
0.9525
 74
    0
 49
-0.9525
 74
    0
  0
LTYPE
  5
48
330
5
100
AcDbSymbolTableRecord
100
AcDbLinetypeTableRecord
  2
CENTER2
 70
    0
  3
Center (.5x) ___ _ ___ _ ___ _ ___ _ ___ _ ___
 72
   65
 73
    4
 40
28.575
 49
19.05
 74
    0
 49
-3.175
 74
    0
 49
3.175
 74
    0
 49
-3.175
 74
    0
  0
LTYPE
  5
49
330
5
100
AcDbSymbolTableRecord
100
AcDbLinetypeTableRecord
  2
CENTERX2
 70
    0
  3
Center (2x) ________  __  ________  __  _____
 72
   65
 73
    4
 40
101.6
 49
63.5
 74
    0
 49
-12.7
 74
    0
 49
12.7
 74
    0
 49
-12.7
 74
    0
  0
ENDTAB
  0
TABLE
  2
LAYER
  5
2
330
0
100
AcDbSymbolTable
 70
    1
  0
LAYER
  5
10
330
2
100
AcDbSymbolTableRecord
100
AcDbLayerTableRecord
  2
0
 70
    0
 62
    7
  6
CONTINUOUS
370
    0
390
F
  0
ENDTAB
  0
TABLE
  2
STYLE
  5
3
330
0
100
AcDbSymbolTable
 70
    3
  0
STYLE
  5
4A
330
2
100
AcDbSymbolTableRecord
100
AcDbTextStyleTableRecord
  2
Standard
 70
    0
 40
0
 41
1
 50
0
 71
    0
 42
1
  3
txt
  4

  0
ENDTAB
  0
TABLE
  2
VIEW
  5
6
330
0
100
AcDbSymbolTable
 70
    0
  0
ENDTAB
  0
TABLE
  2
UCS
  5
7
330
0
100
AcDbSymbolTable
 70
    0
  0
ENDTAB
  0
TABLE
  2
APPID
  5
9
330
0
100
AcDbSymbolTable
 70
    1
  0
APPID
  5
12
330
9
100
AcDbSymbolTableRecord
100
AcDbRegAppTableRecord
  2
ACAD
 70
    0
  0
APPID
  5
4B
330
9
100
AcDbSymbolTableRecord
100
AcDbRegAppTableRecord
  2
LibreCad
 70
    0
  0
ENDTAB
  0
TABLE
  2
DIMSTYLE
  5
A
330
0
100
AcDbSymbolTable
 70
    1
100
AcDbDimStyleTable
 71
    1
  0
DIMSTYLE
105
4C
330
A
100
AcDbSymbolTableRecord
100
AcDbDimStyleTableRecord
  2
Standard
 70
    0
 40
2.5
 41
2.5
 42
0.625
 43
0.38
 44
1.25
 45
0
 46
0
 47
0
 48
0
 49
1
140
2.5
141
0.09
142
0
143
25.4
144
1
145
0
146
1
147
0.625
148
0
 71
    0
 72
    0
 73
    0
 74
    1
 75
    0
 76
    0
 77
    0
 78
    8
 79
    0
170
    0
171
    2
172
    0
173
    0
174
    0
175
    0
176
    0
177
    0
178
    0
179
    0
271
    2
272
    4
273
    2
274
    2
275
    0
276
    0
277
    2
278
   44
279
    0
280
    0
281
    0
282
    0
283
    1
284
    0
285
    0
286
    0
288
    0
289
    3
340
STANDARD
341

371
   -2
372
   -2
  0
ENDTAB
  0
TABLE
  2
BLOCK_RECORD
  5
1
330
0
100
AcDbSymbolTable
 70
    2
  0
BLOCK_RECORD
  5
1F
330
1
100
AcDbSymbolTableRecord
100
AcDbBlockTableRecord
  2
*Model_Space
 70
    0
280
    1
281
    0
  0
BLOCK_RECORD
  5
1E
330
1
100
AcDbSymbolTableRecord
100
AcDbBlockTableRecord
  2
*Paper_Space
 70
    0
280
    1
281
    0
  0
ENDTAB
  0
ENDSEC
  0
SECTION
  2
BLOCKS
  0
BLOCK
  5
20
330
1F
100
AcDbEntity
  8
0
100
AcDbBlockBegin
  2
*Model_Space
 70
    0
 10
0
 20
0
 30
0
  3
*Model_Space
  1

  0
ENDBLK
  5
21
330
1F
100
AcDbEntity
  8
0
100
AcDbBlockEnd
  0
BLOCK
  5
1C
330
1B
100
AcDbEntity
  8
0
100
AcDbBlockBegin
  2
*Paper_Space
 70
    0
 10
0
 20
0
 30
0
  3
*Paper_Space
  1

  0
ENDBLK
  5
1D
330
1F
100
AcDbEntity
  8
0
100
AcDbBlockEnd
  0
ENDSEC
  0
SECTION
  2
ENTITIES
  0
LWPOLYLINE
  5
4D
100
AcDbEntity
  8
0
  6
ByLayer
 62
  256
370
   -1
100
AcDbPolyline
 90
  128
 70
    1
 43
0
 10
111.4999999999982
 20
759.6928030000017
 42
-0.0001310000000000109
 10
119.3867210000062
 20
755.0419709999915
 42
-6.999999999999486e-005
 10
129.1382680000061
 20
749.2861649999904
 42
-6.999999999999486e-005
 10
139.0958260000043
 20
743.4050199999983
 42
-0.0001079999999999591
 10
147.6728279999977
 20
738.3351450000014
 42
0.001176999999999928
 10
155.134057999997
 20
733.946299000001
 42
0.001760000000000038
 10
161.6759169999978
 20
730.1498040000013
 42
0.0007249999999999209
 10
167.2965469999985
 20
726.9251720000012
 42
0.03827100000000012
 10
168.419376
 20
726.392565
 42
-0.3057319999999979
 10
169.4477019999995
 20
724.924306
 42
-0.001151999999999999
 10
169.7795810000002
 20
703.173749
 42
-0.002532
 10
170.0544200000149
 20
668.338378
 42
-0.0002550000000000001
 10
170.2465480000101
 20
585.345699
 10
170.5
 20
444.902725
 10
188.5000000000014
 20
434.8202769999994
 42
0.0007159999999998951
 10
196.5552919999986
 20
430.3233670000018
 42
0.0004599999999998544
 10
205.9124999999885
 20
425.1284980000073
 42
0.0004619999999999611
 10
215.0805489999921
 20
420.0607560000058
 42
0.0008690000000000791
 10
222.5000000000005
 20
415.9853189999985
 42
-0.0003170000000000092
 10
229.1720099999998
 20
412.3300239999971
 42
-0.0002959999999999896
 10
235.9881429999991
 20
408.584895
 42
-0.0002950000000000151
 10
242.0343940000012
 20
405.2534620000005
 42
-0.001016999999999991
 10
245.9489980000001
 20
403.0831439999997
 10
253.397995
 20
398.933479
 10
259.448998
 20
402.136315
 42
0.004217999999999836
 10
262.0584279999997
 20
403.5458149999998
 42
0.003199000000000245
 10
264.8975179999998
 20
405.1342129999999
 42
0.003234000000000151
 10
267.5429659999998
 20
406.6592840000001
 42
0.007527000000000365
 10
269.4999999999999
 20
407.844323
 42
-0.010589
 10
275.9068009999974
 20
411.6703979999984
 42
-0.0005950000000000107
 10
296.0479269999973
 20
423.0952429999998
 42
-0.0009930000000000151
 10
318.3230100000005
 20
435.6372080000019
 42
-0.001121999999999947
 10
339.7571829999993
 20
447.5865440000006
 42
-0.01408100000000005
 10
352.721614
 20
454.305852
 42
-0.01764800000000001
 10
365.114473
 20
459.761837
 42
-0.018915
 10
377.050559
 20
464.0055609999999
 42
-0.02229699999999997
 10
388.64061
 20
467.078659
 42
-0.03958899999999992
 10
391.97255
 20
467.5327869999996
 42
-0.002179000000000021
 10
402.500679
 20
468.0803719999997
 42
-0.003366000000000009
 10
415.0475440000001
 20
468.5934890000001
 42
-0.002453999999999996
 10
428.9999999999989
 20
469.0014680000002
 42
0.003560000000000003
 10
454.3141679999989
 20
469.7977109999999
 42
0.02169199999999963
 10
467.3634979999998
 20
470.8693739999999
 42
0.03667200000000001
 10
477.1016789999999
 20
472.829485
 42
0.02415900000000006
 10
487.9516029999999
 20
476.427994
 42
0.01840400000000005
 10
499.7047030000001
 20
481.471508
 42
0.02903099999999971
 10
509.331649
 20
486.7332969999999
 42
0.02787199999999999
 10
518.5553969999997
 20
493.2347359999999
 42
0.01536900000000006
 10
529.1066319999999
 20
502.129924
 42
-0.009418999999999933
 10
532.075297
 20
504.6936939999998
 42
-0.01547
 10
534.692284
 20
506.735538
 42
-0.009218000000000037
 10
536.886563
 20
508.279613
 42
-0.3594159999999861
 10
537.439965
 20
508.226702
 42
0.04403399999999983
 10
537.700874
 20
508.0081040000001
 42
0.3113769999998214
 10
537.857563
 20
508.007219
 42
0.2888970000000318
 10
537.922687
 20
508.156954
 42
0.04065000000000031
 10
537.841101
 20
508.5
 42
-0.1365219999999959
 10
537.818025
 20
509.031659
 42
-0.03510399999999984
 10
538.072963
 20
509.86118
 42
-0.03307599999999992
 10
538.509829
 20
510.802599
 42
-0.02839200000000014
 10
539.087594
 20
511.729548
 42
-0.1179269999999998
 10
539.991573
 20
512.5254180000001
 42
-0.4487960000000478
 10
540.6121249999999
 20
512.294254
 42
-0.05738599999999992
 10
541.0746760000002
 20
510.526024
 42
-0.002779999999999997
 10
541.8978810000002
 20
504.4947720000001
 42
0.02447999999999998
 10
544.2002690000002
 20
491.7729730000001
 42
0.02050799999999996
 10
547.8457
 20
478.549765
 42
0.020581
 10
552.54349
 20
465.726726
 42
0.02528500000000012
 10
558.0066890000001
 20
454.208544
 10
560.852542
 20
448.917088
 10
555.8876500000001
 20
446.2085440000001
 42
0.002698000000000097
 10
549.2158600000112
 20
442.5219630000356
 42
5.799999999998076e-005
 10
516.7151930000036
 20
424.3287170000549
 42
0.0001489999999999309
 10
485.4087009999948
 20
406.7868750000034
 42
0.000445999999999999
 10
463.9999999999891
 20
394.7575339999894
 42
-9.400000000001021e-005
 10
449.9841749999741
 20
386.8692199999969
 42
-0.0001139999999999683
 10
436.8289889999542
 20
379.472517999995
 42
-9.19999999999735e-005
 10
421.5737629999931
 20
370.9033150000032
 42
-3.60000000001559e-005
 10
400.4999999999091
 20
359.0727979999792
 42
7.199999999992098e-005
 10
388.6852420000105
 20
352.4390330000097
 42
7.799999999999971e-005
 10
377.1662470000156
 20
345.966797000001
 42
7.300000000009904e-005
 10
367.2834859999962
 20
340.4099929999934
 42
0.0003729999999999427
 10
361.7893529999996
 20
337.314331
 42
-0.007703000000000073
 10
358.0030199999998
 20
335.253457
 42
-0.01195800000000019
 10
354.6691749999999
 20
333.605315
 42
-0.006271000000000131
 10
351.8493769999999
 20
332.337017
 42
-0.2456989999999767
 10
351.186675
 20
332.3846280000002
 42
0.1704440000000118
 10
350.711467
 20
332.4888660000001
 42
0.05495500000000055
 10
349.99934
 20
332.3209890000002
 42
0.04744600000000028
 10
349.189178
 20
331.9433990000001
 42
0.03790200000000032
 10
348.397322
 20
331.3938099999999
 42
0.01154700000000002
 10
347.7328430000001
 20
330.827753
 42
0.09819400000000771
 10
347.4979630000001
 20
330.516437
 42
0.6377429999994971
 10
347.577569
 20
330.418961
 42
0.04967599999999974
 10
348
 20
330.572547
 42
-0.01125400000000004
 10
348.684636
 20
330.882798
 42
-0.252264000000005
 10
348.894078
 20
330.863635
 42
-0.4449780000001161
 10
348.916719
 20
330.711772
 42
-0.01763900000000012
 10
348.5
 20
330.2410469999999
 42
-0.07546699999999994
 10
344.7425649999823
 20
327.3233389999878
 42
-0.0004309999999999678
 10
305.5806819999889
 20
305.482253999995
 42
-0.0002670000000000354
 10
265.6848830000054
 20
283.304765000008
 42
-0.1273869999999987
 10
262.853205
 20
282.5714290000001
 42
0.04336400000000031
 10
262.211031
 20
282.515629
 42
0.07276400000000062
 10
261.697727
 20
282.34631
 42
0.107594000000003
 10
261.3880839999999
 20
282.096804
 42
0.2307440000000078
 10
261.3214290000001
 20
281.805067
 42
-0.2598370000000469
 10
261.2017240000001
 20
281.3879999999999
 42
-0.01983700000000003
 10
260.30843
 20
280.567097
 42
-0.02326799999999993
 10
259.095154
 20
279.631295
 42
-0.01538500000000015
 10
257.622162
 20
278.666868
 10
253.744324
 20
276.29503
 10
222.1221619999978
 20
294.2846689999969
 42
0.0005359999999999729
 10
198.1256459999986
 20
307.9020740000014
 42
0.0003899999999999831
 10
171.4064670000025
 20
322.9991250000057
 42
0.0003820000000000111
 10
143.9001849999986
 20
338.484902000002
 42
0.0004329999999999614
 10
117.4999999999977
 20
353.2913059999964
 42
-0.0003729999999999427
 10
110.9343729999973
 20
356.9725620000008
 42
-0.0003839999999998487
 10
104.4375000000009
 20
360.6282109999975
 42
-0.0003710000000000061
 10
98.80955400000033
 20
363.8061309999994
 42
-0.0016360000000001
 10
95.49999999999966
 20
365.6924850000003
 10
89.5
 20
369.138369
 10
89.75485
 20
570.601772
 10
90.00970100000001
 20
772.065176
 10
92.25484999999998
 20
770.888475
 42
-0.01053199999999997
 10
93.78297800000018
 20
770.0460800000001
 42
-0.0005029999999999672
 10
98.83423699999935
 20
767.1143580000009
 42
-0.0008240000000000016
 10
104.8242669999995
 20
763.6164940000003
 42
-0.0005929999999999939
  0
LWPOLYLINE
  5
4E
100
AcDbEntity
  8
0
  6
ByLayer
 62
  256
370
   -1
100
AcDbPolyline
 90
  174
 70
    1
 43
0
 10
521.5
 20
703.823471
 42
0.02359199999999986
 10
522.6135999999999
 20
703.551601
 42
0.005341999999999875
 10
524.5281249999999
 20
703.200062
 42
0.005521999999999801
 10
526.747657
 20
702.842179
 42
0.005336000000000006
 10
529
 20
702.529018
 42
-0.029984
 10
541.032855
 20
700.2469110000001
 42
-0.01865800000000005
 10
554.822905
 20
696.2113790000001
 42
-0.01863399999999995
 10
568.316535
 20
691.143626
 42
-0.02919500000000005
 10
579.449301
 20
685.6983930000002
 42
-0.02334800000000004
 10
587.099116
 20
680.90272
 42
-0.01669699999999995
 10
595.2020289999999
 20
674.8692059999998
 42
-0.01643099999999996
 10
603.061688
 20
668.1641119999999
 42
-0.01968599999999996
 10
609.986034
 20
661.3344059999999
 42
-0.054692
 10
626.4490620000001
 20
639.389917
 42
-0.04604300000000002
 10
638.892499
 20
613.118142
 42
-0.04058200000000003
 10
647.5108890000001
 20
581.880366
 42
-0.02690099999999999
 10
652.4935460000002
 20
545
 42
0.01827599999999999
 10
655.0265249999998
 20
523.458692
 42
0.04013800000000012
 10
658.8681549999999
 20
507.3300750000001
 42
0.05184000000000011
 10
664.3866009999999
 20
494.8943049999999
 42
0.06497200000000014
 10
672.025699
 20
484.866338
 42
0.05575899999999991
 10
680.1424460000001
 20
478.3209410000001
 42
0.05821400000000007
 10
689.391927
 20
473.842264
 42
0.04579100000000001
 10
701.2070069999999
 20
470.9118270000002
 42
0.01937700000000013
 10
717.4529419999999
 20
469.0706330000002
 42
0.01305600000000007
 10
726.6113199999988
 20
468.6307870000001
 42
0.0019379999999999
 10
745.1005749999968
 20
468.2978899999994
 42
0.002117999999999932
 10
767.4938789999961
 20
468.0764079999985
 42
0.001593999999999921
 10
792.1230399999969
 20
468.0156849999989
 10
852
 20
468.058935
 10
852
 20
493.521722
 10
852
 20
518.984508
 10
791.387119
 20
519.242254
 10
730.774239
 20
519.5
 10
732.637119
 20
521.54713
 42
-0.006595999999999992
 10
733.313282
 20
522.270757
 42
-0.03715500000000019
 10
733.706543
 20
522.6239869999999
 42
-0.7146819999988285
 10
733.770722
 20
522.581619
 42
-0.08390400000001019
 10
733.6617490000001
 20
522.338331
 42
0.3689609999999794
 10
733.7790450000001
 20
521.3522750000001
 42
0.09956399999999779
 10
735.2342640000001
 20
520.4660810000001
 42
0.07205199999999995
 10
737.360487
 20
520.0247370000002
 42
0.1110359999999988
 10
739.207087
 20
520.3234150000001
 42
0.03811499999999952
 10
739.671366
 20
520.5521220000001
 42
0.4495170000000917
 10
739.705412
 20
520.727276
 42
0.2033299999999899
 10
739.465715
 20
520.863465
 42
0.01760499999999982
 10
738.75
 20
520.921053
 42
-0.04867700000000046
 10
737.540025
 20
521.094478
 42
-0.2803749999999974
 10
737.1023290000001
 20
521.533009
 42
-0.1663720000000066
 10
737.1749009999997
 20
522.319674
 42
-0.01742200000000005
 10
738.0027039999997
 20
524.005053
 42
0.03931499999999877
 10
738.3948999999999
 20
524.900531
 42
0.09877700000000889
 10
738.4920000000002
 20
525.60328
 42
0.1344210000000056
 10
738.304861
 20
526.155293
 42
0.1061790000000001
 10
737.848196
 20
526.5938200000001
 42
0.02926499999999969
 10
737.36382
 20
526.855337
 42
0.3870030000002135
 10
737.1855919999998
 20
526.7998219999999
 42
0.2569320000001647
 10
737.1792309999998
 20
526.567312
 42
0.01948799999999997
 10
737.5
 20
526
 42
-0.01914800000000011
 10
737.825938
 20
525.42446
 42
-0.2723229999998829
 10
737.8135109999998
 20
525.1977460000002
 42
-0.3744569999998322
 10
737.628866
 20
525.147102
 42
-0.02617599999999978
 10
737.118909
 20
525.4265100000002
 42
-0.2664870000000112
 10
736.784297
 20
526.044359
 42
-0.08903599999999823
 10
736.998439
 20
527.089356
 42
-0.04685100000000011
 10
737.7867509999999
 20
528.6284240000001
 42
-0.01374100000000005
 10
739.275827
 20
530.831019
 42
0.002298999999999908
 10
741.2889749999977
 20
533.666727999997
 42
0.0003019999999999043
 10
745.5319749999962
 20
539.7097369999929
 42
0.0003510000000000365
 10
750.5546649999997
 20
546.8831069999987
 42
0.0002939999999999644
 10
755.8732739999987
 20
554.4999999999982
 42
-0.006606000000000033
 10
765.8791510000001
 20
568.451057
 42
-0.03033100000000005
 10
772.261587
 20
576.089725
 42
-0.05291100000000009
 10
777.530311
 20
580.603609
 42
-0.07173100000000007
 10
783.1395649999999
 20
583.378874
 42
-0.05148
 10
792.092078
 20
585.3185569999999
 42
-0.01724099999999998
 10
805.456407
 20
586.336452
 42
-0.008914000000000035
 10
827.1401159999986
 20
586.8507219999992
 42
-0.001401999999999997
 10
869.8334419999984
 20
586.9822339999992
 10
934.166883
 20
587
 10
933.6953630000007
 20
518.7499999999984
 42
-0.00132200000000004
 10
933.2251890000006
 20
469.5297459999969
 42
-0.01519000000000009
 10
932.4013569999998
 20
450.1901659999998
 42
-0.03946099999999994
 10
930.618918
 20
438.540891
 42
-0.05178900000000005
 10
927.0913239999998
 20
428.381459
 42
-0.04086499999999996
 10
923.554151
 20
422.1946249999999
 42
-0.04400700000000002
 10
919.1344350000001
 20
416.8287879999999
 42
-0.04397000000000018
 10
913.840186
 20
412.3154479999998
 42
-0.04066300000000013
 10
907.70279
 20
408.663332
 42
-0.05167399999999998
 10
896.226964
 20
404.4451399999999
 42
-0.04595599999999991
 10
883.6655839999996
 20
402.454841
 42
-0.01442300000000003
 10
862.0771099999872
 20
401.6676640000078
 42
-0.0007969999999998303
 10
794.5000000000011
 20
401.2616110000108
 42
-0.0008730000000000776
 10
754.4466859999911
 20
401.154712999999
 42
-0.001806999999999824
 10
723.1583429999968
 20
401.2389559999983
 42
-0.001745000000000105
 10
699.4193419999967
 20
401.4715199999997
 42
-0.01476000000000009
 10
688.7472169999998
 20
401.9286079999999
 42
-0.03684499999999991
 10
661.6752409999999
 20
405.9088360000001
 42
-0.05006299999999993
 10
638.2452719999999
 20
413.664867
 42
-0.05393899999999997
 10
618.204808
 20
425.3395239999999
 42
-0.0547020000000002
 10
601.2294689999999
 20
440.982144
 42
-0.03018100000000001
 10
592.03157
 20
452.9172110000001
 42
-0.03046999999999995
 10
584.3693889999998
 20
465.836122
 42
-0.02994199999999993
 10
578.2210009999998
 20
479.8083700000002
 42
-0.02706099999999993
 10
573.546049
 20
494.8908370000001
 42
-0.01381699999999992
 10
571.583884
 20
503.7139290000001
 42
-0.014561
 10
570.1506509999999
 20
512.4792850000001
 42
-0.01046399999999994
 10
568.9148800000005
 20
523.4639220000009
 42
-0.003259999999999979
 10
567.5128990000003
 20
540.0000000000008
 42
0.011456
 10
565.434679
 20
560.512141
 42
0.026133
 10
562.708993
 20
575.826432
 42
0.032078
 10
558.835427
 20
588.688263
 42
0.02954400000000003
 10
553.2592260000001
 20
601.319406
 42
0.02710399999999997
 10
549.061362
 20
608.500461
 42
0.03174199999999999
 10
544.3075669999999
 20
614.797324
 42
0.03306400000000001
 10
538.984606
 20
620.218833
 42
0.034939
 10
533.085859
 20
624.78383
 42
0.04454600000000004
 10
526.361681
 20
628.454963
 42
0.02370599999999999
 10
517.49149
 20
631.827187
 42
0.02315399999999996
 10
507.880149
 20
634.4830300000001
 42
0.02959499999999999
 10
498.818788
 20
635.9837170000001
 42
0.02075600000000001
 10
492.7109300000001
 20
636.37175
 42
0.00158000000000004
 10
476.1864259999994
 20
636.68208
 42
0.002171999999999956
 10
456.4660390000008
 20
636.9043919999999
 42
0.001653000000000003
 10
434.8584080000006
 20
636.9826709999998
 10
380.216816
 20
637
 10
379.557499
 20
634.373071
 42
0.05723900000000013
 10
379.2944769999999
 20
632.3852240000007
 42
0.0009400000000000378
 10
379.1227259999998
 20
621.1722759999997
 42
0.002428999999999988
 10
379.0107400000006
 20
608.1147109999997
 42
0.001609999999999817
 10
379.0032719999999
 20
593.1230710000018
 42
-0.000278
 10
379.0395710000012
 20
576.3558829999999
 42
-0.0002080000000000001
 10
379.061576000011
 20
557.895246
 42
-0.0002109999999999985
 10
379.0677210000067
 20
540.5197759999768
 42
-0.0004840000000001229
 10
379.0541810000004
 20
527.4352119999967
 10
379
 20
500.370425
 10
375.25
 20
498.663707
 10
371.5
 20
496.95699
 10
374.25
 20
499.061901
 42
0.01489000000000001
 10
375.303332
 20
499.919065
 42
0.02054200000000004
 10
376.192187
 20
500.753675
 42
0.017692
 10
376.859831
 20
501.484278
 42
0.1781030000000082
 10
377
 20
501.865299
 42
0.2780650000000425
 10
376.829114
 20
502.1488170000001
 42
0.04188800000000027
 10
376.192187
 20
502.41977
 42
0.03694500000000007
 10
375.303735
 20
502.641555
 42
0.02380499999999995
 10
374.25
 20
502.772008
 42
0.01433699999999996
 10
373.059501
 20
502.8278859999999
 42
0.1116399999999983
 10
372.518764
 20
502.715946
 42
0.4781590000001503
 10
372.457799
 20
502.479425
 42
0.09103799999999762
 10
372.834535
 20
502.128854
 42
-0.06376300000000053
 10
373.362721
 20
501.6882699999999
 42
-0.3371179999999527
 10
373.3972739999999
 20
501.33653
 42
-0.1710799999999859
 10
373.008464
 20
501.022416
 42
-0.02122199999999999
 10
371.952454
 20
500.697817
 42
0.0517850000000001
 10
370.931088
 20
500.314241
 42
0.1342570000000026
 10
370.3499409999999
 20
499.794529
 42
0.1446709999999992
 10
370.138725
 20
499.078587
 42
0.06391399999999965
 10
370.265957
 20
498.090982
 42
-0.2783930000000016
 10
369.820054
 20
496.581638
 42
-0.04146200000000008
 10
367.202867
 20
494.560355
 42
-0.01939299999999991
 10
362.0515419999996
 20
491.5006470000001
 42
-0.002450000000000177
 10
350.6480379999994
 20
485.3845930000007
 42
0.0008970000000000096
 10
335.3408920000011
 20
477.2360360000011
 42
0.001314000000000016
 10
321.9065480000006
 20
470.0080170000003
 42
0.001405000000000016
 10
310.9773259999997
 20
464.0509330000005
 42
0.005439999999999969
 10
304.25
 20
460.2637710000001
 10
300
 20
457.809956
 10
300
 20
581.446234
 10
300
 20
705.082511
 10
409.7500000000004
 20
704.7477339999969
 42
-0.0004979999999999768
 10
451.9705419999984
 20
704.5769299999902
 42
-0.0008069999999999934
 10
487.8484370000052
 20
704.3381359999912
 42
-9.39999999999547e-005
 10
519.8600959999901
 20
704.0673550000066
 42
-0.06960700000000106
  0
LWPOLYLINE
  5
4F
100
AcDbEntity
  8
0
  6
ByLayer
 62
  256
370
   -1
100
AcDbPolyline
 90
   48
 70
    1
 43
0
 10
931.868484
 20
702.75
 42
-0.02551699999999982
 10
926.9404649999998
 20
694.5591629999993
 42
-0.003086999999999936
 10
915.0820340000009
 20
677.1821119999959
 42
-0.0004619999999999611
 10
901.7176060000002
 20
657.8936969999995
 42
-0.3986940000000433
 10
900.7042259999999
 20
657.6827979999998
 42
0.04955600000000112
 10
900.341518
 20
657.860043
 42
0.3944849999997201
 10
900.1843740000002
 20
657.794349
 42
0.2209050000000538
 10
900.1870640000001
 20
657.560176
 42
0.02682099999999948
 10
900.4401810000002
 20
657.0967889999999
 42
-0.2849810000000035
 10
900.435536
 20
654.313472
 42
-0.02937400000000001
 10
896.472356
 20
648.710626
 42
-0.03489099999999985
 10
891.3969
 20
643.1979419999999
 42
-0.06561600000000023
 10
886.5
 20
639.6584169999999
 42
-0.09603399999999929
 10
882.199058
 20
638.3121910000001
 42
-0.01862599999999989
 10
874.0438059999996
 20
637.702514
 42
-0.006798999999999935
 10
858.6341659999875
 20
637.3360750000029
 42
-0.0004229999999998964
 10
812.9999999999994
 20
636.9102150000035
 42
0.001085000000000041
 10
782.1524959999992
 20
636.5815189999992
 42
0.002549999999999991
 10
759.124022
 20
636.1687079999999
 42
0.002142000000000036
 10
741.898181
 20
635.6981960000003
 42
0.0301370000000001
 10
735.741059
 20
635.1310879999999
 42
0.02949700000000004
 10
720.769802
 20
631.9231609999997
 42
0.02252699999999998
 10
704.836828
 20
626.7295599999998
 42
0.02295599999999996
 10
689.987427
 20
620.3450569999999
 42
0.03955300000000004
 10
678.3904489999998
 20
613.5342259999998
 42
-0.002146999999999824
 10
675.881161
 20
611.7961030000001
 42
-0.003409000000000022
 10
673.7163629999998
 20
610.3319289999998
 42
-0.000812000000000051
 10
671.8133619999995
 20
609.0681049999998
 42
-0.1472030000000066
 10
671.587044
 20
608.9999999999999
 42
-0.3085219999999628
 10
671.4199749999999
 20
609.1139340000001
 42
-0.001749999999999985
 10
670.6945289999995
 20
610.9828130000001
 42
-0.006442000000000095
 10
669.8894209999997
 20
613.162097
 42
-0.00395099999999997
 10
668.9940319999998
 20
615.75
 42
0.03077499999999999
 10
662.3464529999999
 20
632.073713
 42
0.021417
 10
652.958989
 20
649.62752
 42
0.02161700000000001
 10
642.3154070000001
 20
665.974928
 42
0.03640900000000001
 10
631.8622319999999
 20
678.559274
 10
627.957951
 20
682.618548
 10
636.23312
 20
687.263459
 42
-0.02161199999999996
 10
643.435755
 20
690.9064519999998
 42
-0.01297400000000001
 10
652.267615
 20
694.6311619999999
 42
-0.01278200000000003
 10
661.549357
 20
697.9939720000001
 42
-0.01696999999999995
 10
670.15843
 20
700.5451739999999
 42
-0.03965399999999996
 10
683.890402
 20
702.9715820000001
 42
-0.01644600000000003
 10
702.71397
 20
704.1540789999999
 42
-0.006586000000000035
 10
735.2483089999998
 20
704.6966669999929
 42
-0.0006170000000000168
 10
815.2851840000018
 20
704.8782399999945
 10
933.070368
 20
705
  0
ENDSEC
  0
SECTION
  2
OBJECTS
  0
DICTIONARY
  5
C
330
0
100
AcDbDictionary
281
    1
  3
ACAD_GROUP
350
D
  0
DICTIONARY
  5
D
330
C
100
AcDbDictionary
281
    1
  0
PLOTSETTINGS
  5
50
100
AcDbPlotSettings
  6
1x1
 40
0
 41
0
 42
0
 43
0
  0
ENDSEC
  0
EOF
